<?xml version="1.0" encoding="UTF-8" standalone="no"?>
<!-- Created with Inkscape (http://www.inkscape.org/) -->

<svg
   width="48.400997mm"
   height="7.0820098mm"
   viewBox="0 0 48.400997 7.0820099"
   version="1.1"
   id="svg5"
   inkscape:export-filename="C:\Users\Gabriel\Desktop\bitmap.png"
   inkscape:export-xdpi="97.776863"
   inkscape:export-ydpi="97.776863"
   inkscape:version="1.1 (c68e22c387, 2021-05-23)"
   sodipodi:docname="logo.svg"
   xmlns:inkscape="http://www.inkscape.org/namespaces/inkscape"
   xmlns:sodipodi="http://sodipodi.sourceforge.net/DTD/sodipodi-0.dtd"
   xmlns="http://www.w3.org/2000/svg"
   xmlns:svg="http://www.w3.org/2000/svg">
  <sodipodi:namedview
     id="namedview7"
     pagecolor="#505050"
     bordercolor="#ffffff"
     borderopacity="1"
     inkscape:pageshadow="0"
     inkscape:pageopacity="0"
     inkscape:pagecheckerboard="1"
     inkscape:document-units="mm"
     showgrid="false"
     inkscape:snap-page="true"
     inkscape:zoom="5.6568543"
     inkscape:cx="90.686444"
     inkscape:cy="19.357048"
     inkscape:window-width="2560"
     inkscape:window-height="1009"
     inkscape:window-x="-8"
     inkscape:window-y="-8"
     inkscape:window-maximized="1"
     inkscape:current-layer="layer1" />
  <defs
     id="defs2" />
  <g
     inkscape:label="Layer 1"
     inkscape:groupmode="layer"
     id="layer1"
     transform="translate(-2.886243,-8.613589)">
    <g
       aria-label="movieHUB"
       id="text15332"
       style="font-size:8.81944px;font-family:Arial;-inkscape-font-specification:Arial;stroke-width:0.264583;fill:#ffffff">
      <path
         style="color:#000000;-inkscape-font-specification:'Montserrat Bold';fill:#ffffff;-inkscape-stroke:none"
         d="m 8.9628371,10.739074 q 0.8907634,0 1.4111099,0.529166 0.529167,0.520347 0.529167,1.569861 v 2.716387 H 9.5272813 v -2.504721 q 0,-0.564444 -0.2381249,-0.837847 -0.2293055,-0.282222 -0.661458,-0.282222 -0.4850692,0 -0.7672913,0.3175 -0.2822221,0.308681 -0.2822221,0.926041 v 2.381249 H 6.2023524 v -2.504721 q 0,-1.120069 -0.8995828,-1.120069 -0.4762498,0 -0.7584719,0.3175 -0.2822221,0.308681 -0.2822221,0.926041 v 2.381249 H 2.886243 V 10.80963 h 1.3140966 v 0.546805 q 0.2645832,-0.299861 0.6438191,-0.458611 0.3880553,-0.15875 0.8466662,-0.15875 0.5027081,0 0.9084023,0.202847 0.4056943,0.194028 0.6526386,0.573264 0.2910415,-0.370417 0.7320135,-0.573264 0.4497914,-0.202847 0.9789578,-0.202847 z"
         id="path24992" />
      <path
         id="path24994"
         style="color:#000000;-inkscape-font-specification:'Montserrat Bold';fill:#ffffff;stroke-width:0.999999;-inkscape-stroke:none"
         d="m 43.699219,8.0332031 c -1.888887,0 -3.588499,0.3992188 -5.09961,1.1992188 C 37.110722,10.010198 35.944054,11.1 35.099609,12.5 c -0.844444,1.4 -1.265625,2.989802 -1.265625,4.767578 0,1.777777 0.421181,3.365625 1.265625,4.765625 0.844445,1.399998 2.011113,2.500781 3.5,3.300781 1.511111,0.777779 3.210723,1.166016 5.09961,1.166016 1.888889,0 3.577519,-0.388237 5.066406,-1.166016 1.488889,-0.8 2.655555,-1.900783 3.5,-3.300781 0.844442,-1.4 1.267578,-2.987848 1.267578,-4.765625 0,-1.777776 -0.423136,-3.367578 -1.267578,-4.767578 -0.844445,-1.4 -2.011111,-2.489802 -3.5,-3.2675781 -1.488887,-0.8 -3.177517,-1.1992188 -5.066406,-1.1992188 z m -3.681641,3.8925779 1.517578,0.876953 c 0.636216,-0.334007 1.356771,-0.501953 2.164063,-0.501953 1.333334,0 2.423133,0.454124 3.267578,1.365235 0.749969,0.7692 1.174407,1.772674 1.275391,3.007812 L 49.183594,17.216797 48.25,17.755859 c -0.08526,1.284947 -0.512397,2.334197 -1.283203,3.144532 -0.844445,0.888887 -1.934244,1.332031 -3.267578,1.332031 -0.850182,0 -1.605181,-0.179611 -2.265625,-0.541016 l -1.416016,0.816406 V 20.4375 c -0.610744,-0.845705 -0.917969,-1.901394 -0.917969,-3.169922 0,-1.268437 0.307312,-2.31842 0.917969,-3.148437 z"
         transform="matrix(0.26458333,0,0,0.26458333,2.886243,8.613589)"
         sodipodi:nodetypes="scssscscssscsccscccccscccscccc" />
      <path
         style="color:#000000;-inkscape-font-specification:'Montserrat Bold';fill:#ffffff;-inkscape-stroke:none"
         d="m 22.544737,10.80963 -2.002012,4.744858 h -1.41993 L 17.129601,10.80963 h 1.41993 l 1.314097,3.227915 1.358194,-3.227915 z"
         id="path24996" />
      <path
         style="color:#000000;-inkscape-font-specification:'Montserrat Bold';fill:#ff2a2a;-inkscape-stroke:none;fill-opacity:1"
         d="m 23.797094,10.148172 q -0.379236,0 -0.617361,-0.2204865 -0.238125,-0.220486 -0.238125,-0.5468052 0,-0.3263193 0.238125,-0.5468053 0.238125,-0.220486 0.617361,-0.220486 0.379236,0 0.617361,0.2116665 0.238125,0.2116666 0.238125,0.5291664 0,0.3439582 -0.238125,0.5732636 -0.238125,0.2204865 -0.617361,0.2204865 z"
         id="path26512" />
      <path
         style="color:#000000;-inkscape-font-specification:'Montserrat Bold';fill:#ffffff;-inkscape-stroke:none"
         d="m 23.109178,10.80963 h 1.375832 v 4.744858 h -1.375832 z"
         id="path24998" />
      <path
         style="color:#000000;-inkscape-font-specification:'Montserrat Bold';fill:#ffffff;-inkscape-stroke:none"
         d="m 30.411663,13.199698 q 0,0.02646 -0.02646,0.370416 h -3.589512 q 0.09701,0.440972 0.458611,0.696736 0.361597,0.255764 0.899583,0.255764 0.370417,0 0.652639,-0.105834 0.291041,-0.114652 0.537986,-0.352777 l 0.732013,0.793749 q -0.670277,0.767292 -1.957916,0.767292 -0.802569,0 -1.419929,-0.308681 -0.617361,-0.3175 -0.9525,-0.873124 -0.335139,-0.555625 -0.335139,-1.26118 0,-0.696736 0.32632,-1.252361 0.335138,-0.564444 0.908402,-0.873124 0.582083,-0.3175 1.296458,-0.3175 0.696735,0 1.26118,0.299861 0.564444,0.299861 0.881943,0.864305 0.32632,0.555625 0.32632,1.296458 z m -2.460624,-1.41993 q -0.46743,0 -0.78493,0.264583 -0.3175,0.264583 -0.388055,0.723194 h 2.337151 q -0.07055,-0.449791 -0.388055,-0.714374 -0.3175,-0.273403 -0.776111,-0.273403 z"
         id="path25000" />
      <path
         style="color:#000000;-inkscape-font-specification:'Montserrat Heavy';fill:#ffffff;-inkscape-stroke:none"
         d="m 37.281994,9.3808803 v 6.1736077 h -2.081388 v -2.275415 h -1.922638 v 2.275415 H 31.19658 V 9.3808803 h 2.081388 v 2.1872207 h 1.922638 V 9.3808803 Z"
         id="path25002" />
      <path
         style="color:#000000;-inkscape-font-specification:'Montserrat Heavy';fill:#ffffff;-inkscape-stroke:none"
         d="m 41.241915,15.695599 q -1.41993,0 -2.21368,-0.767291 -0.793749,-0.767291 -0.793749,-2.151943 V 9.3808803 h 2.081388 v 3.3337487 q 0,0.679096 0.238125,0.987777 0.246944,0.30868 0.705555,0.30868 0.458611,0 0.696736,-0.30868 0.246944,-0.308681 0.246944,-0.987777 V 9.3808803 h 2.04611 v 3.3954847 q 0,1.384652 -0.79375,2.151943 -0.793749,0.767291 -2.213679,0.767291 z"
         id="path25004" />
      <path
         style="color:#000000;-inkscape-font-specification:'Montserrat Heavy';fill:#ffffff;-inkscape-stroke:none"
         d="m 50.140714,12.326573 q 0.546805,0.202847 0.846666,0.590903 0.299861,0.388055 0.299861,0.93486 0,0.811389 -0.670278,1.26118 -0.670277,0.440972 -1.940276,0.440972 h -3.47486 V 9.3808803 h 3.298471 q 1.234722,0 1.860902,0.440972 0.634999,0.4409717 0.634999,1.1729857 0,0.432152 -0.220486,0.77611 -0.211666,0.343959 -0.634999,0.555625 z m -2.892777,-1.490485 v 0.917222 h 0.970139 q 0.679097,0 0.679097,-0.458611 0,-0.458611 -0.679097,-0.458611 z m 1.252361,3.263193 q 0.687916,0 0.687916,-0.48507 0,-0.485069 -0.687916,-0.485069 h -1.252361 v 0.970139 z"
         id="path25006" />
    </g>
    <path
       sodipodi:type="star"
       style="fill:#ff2a2a;fill-rule:evenodd;stroke-width:16.1495;stroke-linecap:square;stroke-opacity:0"
       id="path24870"
       inkscape:flatsided="true"
       sodipodi:sides="3"
       sodipodi:cx="30.239647"
       sodipodi:cy="-7.3128552"
       sodipodi:r1="14.554015"
       sodipodi:r2="7.2770076"
       sodipodi:arg1="0.52359878"
       sodipodi:arg2="1.5707963"
       inkscape:rounded="0"
       inkscape:randomized="0"
       d="M 42.843794,-0.03584761 17.6355,-0.03584772 30.239647,-21.86687 Z"
       transform="matrix(0,0.08191628,-0.08191628,0,13.679391,10.704925)"
       inkscape:transform-center-x="-0.2980516" />
  </g>
</svg>
